<?xml version="1.0" standalone="no"?>
<!DOCTYPE svg PUBLIC "-//W3C//DTD SVG 20010904//EN"
 "http://www.w3.org/TR/2001/REC-SVG-20010904/DTD/svg10.dtd">
<svg version="1.0" xmlns="http://www.w3.org/2000/svg"
 width="48.000000pt" height="48.000000pt" viewBox="0 0 48.000000 48.000000"
 preserveAspectRatio="xMidYMid meet">

<g transform="translate(0.000000,48.000000) scale(0.100000,-0.100000)"
fill="#000000" stroke="none">
<path d="M92 428 c-8 -8 -12 -65 -12 -190 0 -207 -3 -201 108 -196 89 4 86 22
-5 26 l-73 3 0 169 0 170 130 0 129 0 3 -77 c2 -44 7 -78 13 -78 14 0 18 140
5 165 -10 19 -21 20 -148 20 -94 0 -142 -4 -150 -12z"/>
<path d="M202 358 c-15 -15 -16 -40 -2 -54 8 -8 6 -15 -5 -24 -17 -14 -21 -50
-5 -50 5 0 14 9 20 20 6 11 17 20 25 20 8 0 19 -9 25 -20 6 -11 15 -20 20 -20
15 0 12 36 -5 50 -11 9 -12 16 -2 31 24 38 -38 80 -71 47z m48 -28 c0 -5 -7
-10 -15 -10 -8 0 -15 5 -15 10 0 6 7 10 15 10 8 0 15 -4 15 -10z"/>
<path d="M320 210 c-8 -5 -50 -10 -92 -10 -63 0 -78 -3 -78 -15 0 -12 14 -15
65 -15 l65 0 0 -63 c0 -84 18 -102 100 -102 83 0 100 18 100 107 0 70 -8 81
-36 53 -17 -16 -100 -21 -123 -6 -22 14 19 31 74 31 33 0 45 4 43 13 -6 15
-97 21 -118 7z m130 -92 c0 -15 -40 -28 -85 -28 -33 0 -45 -4 -42 -12 2 -9 25
-13 65 -13 34 0 62 -3 62 -7 0 -13 -38 -28 -70 -28 -51 0 -70 16 -70 58 l0 37
70 0 c39 0 70 -3 70 -7z"/>
<path d="M150 125 c0 -13 8 -16 38 -13 20 2 37 8 37 13 0 6 -17 11 -37 13 -30
3 -38 0 -38 -13z"/>
</g>
</svg>
